<?xml version="1.0" encoding="utf-8"?>
<!-- Generator: Adobe Illustrator 22.0.1, SVG Export Plug-In . SVG Version: 6.00 Build 0)  -->
<svg version="1.1" id="Layer_2_1_" xmlns="http://www.w3.org/2000/svg" xmlns:xlink="http://www.w3.org/1999/xlink" x="0px" y="0px"
	 viewBox="0 0 229.3 646.6" style="enable-background:new 0 0 229.3 646.6;" xml:space="preserve">
<style type="text/css">
	.st0{fill:#DDE8E8;}
	.st1{fill:#D8671A;}
	.st2{fill:#15383F;}
	.st3{fill:#FFFFFF;}
	.st4{fill:#184B54;}
	.st5{fill:#77BC69;}
	.st6{fill:#478455;}
	.st7{fill:#FFDF8F;}
	.st8{fill:#F7C745;}
	.st9{fill:#3B8A9D;}
	.st10{fill:#505050;}
	.st11{fill:#345B3B;}
	.st12{fill:#DDBB70;}
	.st13{fill:none;stroke:#8B8E8E;stroke-width:2;stroke-linecap:round;stroke-miterlimit:10;}
	.st14{fill:#C63838;}
	.st15{fill:#ABB2B2;}
	.st16{fill:#EDAB26;}
</style>
<title>53_Delighted</title>
<ellipse class="st0" cx="93.1" cy="605.6" rx="91.5" ry="41"/>
<path class="st1" d="M96.6,560.9l-2.2,7.6c-0.1,1.9,1,3.7,2.8,4.4l43.2,19.2c2.5,1.1,5.4,0.8,7.6-0.8l9.1-6.8c2-1.4,2.5-4.1,1.1-6
	c-0.5-0.7-1.1-1.2-1.8-1.5l-37.2-19.6l-1.9-19.9l-20-0.3L96.6,560.9z"/>
<path class="st2" d="M157,584.5l-9.1,6.8c-2.2,1.6-5.1,1.9-7.6,0.8l-43.2-19.2c-1-0.4-1.9-1.2-2.4-2.2l-0.2,3.2
	c-0.1,1.9,1,3.7,2.8,4.4l43.2,19.2c2.5,1.1,5.4,0.8,7.6-0.8l9.1-6.8c1.9-1.3,2.4-4,1.1-5.9c-0.1-0.2-0.2-0.3-0.4-0.5
	C157.7,583.9,157.4,584.2,157,584.5z"/>
<path class="st3" d="M119.6,570.7c-0.9,0-1.5-0.7-1.5-1.5c0-0.3,0.1-0.5,0.2-0.7c4.5-8.1,11.7-8,12-8c0.9,0,1.5,0.7,1.5,1.6
	c0,0.9-0.7,1.5-1.6,1.5l0,0c-0.2,0-5.7,0-9.2,6.4C120.7,570.4,120.2,570.7,119.6,570.7z"/>
<path class="st3" d="M126.1,574.1c-0.9,0-1.5-0.7-1.5-1.5c0-0.3,0.1-0.5,0.2-0.7c4.5-8.1,11.7-8,12-8c0.9,0,1.5,0.7,1.5,1.6
	c0,0,0,0,0,0c0,0.8-0.7,1.5-1.6,1.5c-0.3,0-5.7,0-9.2,6.4C127.3,573.7,126.7,574.1,126.1,574.1z"/>
<path class="st3" d="M133,577.9c-0.9,0-1.5-0.7-1.5-1.5c0-0.3,0.1-0.5,0.2-0.7c4.5-8.1,11.7-8,12-8c0.9,0,1.5,0.7,1.5,1.6
	c0,0,0,0,0,0c0,0.8-0.7,1.5-1.6,1.5c-0.3,0-5.7,0-9.2,6.4C134.1,577.6,133.6,578,133,577.9z"/>
<path class="st4" d="M116.6,317.6l3.7,238.1c0,0-11.4,7-24.6,1.8L64.2,314.6l30.2-11L116.6,317.6z"/>
<path class="st1" d="M31.5,593.4l-2.9,8.6c-0.2,2.2,1,4.2,3,5.1l48.1,24.1c2.8,1.4,6.1,1.2,8.7-0.5l10.7-7.2c2.3-1.5,3-4.6,1.5-6.9
	c-0.5-0.7-1.1-1.3-1.8-1.7l-41.3-24.3l-1.1-22.8l-22.8-1.5L31.5,593.4z"/>
<path class="st2" d="M99.1,623.5l-10.7,7.2c-2.6,1.7-5.9,1.9-8.7,0.5l-48.1-24.1c-1.1-0.6-2.1-1.5-2.6-2.7l-0.4,3.7
	c-0.2,2.2,1,4.2,3,5.1l48.1,24.1c2.8,1.4,6.1,1.2,8.7-0.5l10.7-7.2c2.3-1.4,3-4.4,1.6-6.7c-0.1-0.2-0.2-0.4-0.4-0.5
	C99.9,622.8,99.5,623.2,99.1,623.5z"/>
<path class="st3" d="M57.3,605.6c-0.9,0-1.5-0.7-1.5-1.6c0-0.3,0.1-0.5,0.2-0.8c5.4-8.9,13.5-8.4,13.9-8.3c0.8,0.1,1.5,0.8,1.4,1.7
	c-0.1,0.8-0.8,1.4-1.6,1.4c-0.3,0-6.6-0.3-11,6.9C58.3,605.3,57.9,605.6,57.3,605.6z"/>
<path class="st3" d="M64.6,609.7c-0.9,0-1.5-0.7-1.5-1.5c0-0.3,0.1-0.6,0.2-0.8c5.4-8.9,13.5-8.4,13.9-8.3c0.8,0.1,1.5,0.8,1.4,1.7
	c-0.1,0.8-0.8,1.4-1.6,1.4c-0.3,0-6.6-0.3-11,6.9C65.6,609.4,65.1,609.7,64.6,609.7z"/>
<path class="st3" d="M72.2,614.5c-0.9,0-1.5-0.7-1.5-1.5c0-0.3,0.1-0.6,0.2-0.8c5.4-8.9,13.5-8.4,13.9-8.3c0.8,0.1,1.5,0.8,1.4,1.7
	c-0.1,0.8-0.8,1.4-1.6,1.4c-0.3,0-6.6-0.3-11,6.9C73.2,614.2,72.7,614.5,72.2,614.5z"/>
<path class="st2" d="M107.2,335.3l-24.7-6.5l-26.2-23.1l-29.1,13l3.4,269.2c0,0,14.1,8,28.2,0.8l20.9-225.4L107.2,335.3z"/>
<path class="st5" d="M180,279l-57.2-31.2l2.4-67.2c1.3-10.8-5.8-20.9-15.6-22.3l0,0c-2.4-0.3-4.8-0.2-7.2,0.6
	c-8.4,2.6-13.6,11.7-12.7,21.2l8.8,89.5l73.5,27.6L180,279z"/>
<path class="st5" d="M118.7,329.2V188.9c0-23-17.1-38-44.1-38l0,0c-26.9,0-49,14.9-49,38v140.1c0,0.7,0.5,1.3,1.1,1.5
	c8,3.1,51.8,20.8,91,0C118.3,330.3,118.7,329.8,118.7,329.2z"/>
<path class="st6" d="M58.8,245.8l-11.7-52l-8.3-31.5c-8.2,6.5-13.2,15.7-13.2,26.7v140.1c0,0.7,0.5,1.3,1.1,1.5
	c8,3.1,51.8,20.8,91,0c0.6-0.3,0.9-0.8,0.9-1.4c0,0,0-58,0-77.4c0-7.4,0-26.6,0-39.7L58.8,245.8z"/>
<path class="st5" d="M56.1,149.7L20.6,169l24.6,25.5l56.8-32.2l9.3-3.7c-8.3-2.3-16.5-5.3-24.3-9L56.1,149.7z"/>
<polygon class="st1" points="139.9,390.2 139.9,313.5 56.3,265.4 56.3,342.1 "/>
<polygon class="st7" points="139.9,390.2 139.9,313.5 229.3,261.9 229.3,338.6 "/>
<polygon class="st8" points="56.3,265.4 145.7,213.8 229.3,261.9 139.9,313.5 "/>
<polygon class="st4" points="90.1,245.9 112.4,233 196,281.1 173.7,294 "/>
<polygon class="st9" points="173.7,294 173.7,322.2 196,309.2 196,281.1 "/>
<path class="st10" d="M208.8,312.4c-5.9,9.5-14.6,17.7-22,21.9c-10.4,6-19.8,6.1-26.9,1.4c-0.6-0.4-0.1-1.6,0.6-1.5
	c7.6,1.7,17.1-0.1,26.9-5.7c7.7-4.7,14.7-10.7,20.5-17.6C208.9,309.8,209.8,310.8,208.8,312.4z"/>
<path class="st10" d="M211.3,307c-0.8-0.9-5,2.3-6.9,3.7c-0.6,0.4-0.7-0.2-0.2-1c3.4-5.2,9-7.5,9.6-6.8s-0.2,8.9-3.4,14.4
	c-0.5,0.9-1,0.8-0.7,0C210.4,314.4,212,307.9,211.3,307z"/>
<path class="st7" d="M85,308.5c-2.3,0.1-4.4,1.5-5.4,3.7c-4,9.4,1,22.5,12.2,31.1c9.6,7.3,21.1,9.2,29.3,5.7
	c2.8-1.3,4.1-4.6,2.8-7.4c-0.4-0.9-1-1.6-1.8-2.2l-21.7-16.4c-1.7-1.2-2-3.6-0.7-5.3c0.7-0.9,1.7-1.4,2.8-1.5l1-0.1
	c2.4-0.1,4.2-2.2,4.1-4.6c0-0.4-0.1-0.8-0.2-1.1c-0.7-1.9-2.5-3-4.5-2.9L85,308.5z"/>
<polygon class="st7" points="79.4,302 69.7,313 79,318.4 93.3,311.7 "/>
<path class="st5" d="M84.3,302.4l-54.2-43.5l17-65.1c3.7-10.3-1.7-21.7-12-25.4l0,0c-2.5-0.9-5.1-1.3-7.8-1.1
	c-9.5,0.5-17.1,8.2-18.1,17.7l-9.1,83c-0.4,3.9,1.5,7.7,4.9,9.7l66.8,39.3c0,0,4.6,0,9.3-5.8C85,306.3,84.3,302.4,84.3,302.4z"/>
<polygon class="st11" points="86.9,148.9 86.9,164.8 99.7,171.1 97.7,157.4 "/>
<polygon class="st6" points="86.9,178.2 97.7,157.4 86.9,148.9 "/>
<polygon class="st7" points="86.9,178.2 86.9,127.5 56.1,127.5 56.1,155.5 "/>
<path class="st12" d="M86.9,125.2H56.1v23.4c5,3.9,11.1,6.1,17.5,6.1l0,0c4.6,0,9.2-1.1,13.3-3.3V125.2z"/>
<path class="st7" d="M100,72c-14.8-5.1-31,2.8-36.1,17.6L56,112.5c-5.1,14.8,2.7,31,17.6,36.1c14.8,5.1,31-2.7,36.1-17.6l7.9-22.9
	C122.7,93.3,114.8,77.2,100,72z"/>
<ellipse transform="matrix(0.3269 -0.9451 0.9451 0.3269 -45.7935 156.3223)" class="st2" cx="86.8" cy="110.3" rx="2.7" ry="2.7"/>
<ellipse transform="matrix(0.3281 -0.9446 0.9446 0.3281 -35.9689 180.7964)" class="st2" cx="109.1" cy="115.7" rx="2.7" ry="2.7"/>
<path class="st13" d="M85.4,101.5c2.5-0.8,5.3-0.6,7.6,0.8"/>
<path class="st13" d="M113.9,111.8c-1.5-2.2-3.8-3.7-6.5-4.1"/>
<path class="st2" d="M96,135.2c-2.2,5.4-8.4,8.1-13.8,5.9c-5.4-2.2-8.1-8.4-5.9-13.8c0.1-0.3,0.3-0.6,0.4-0.9L96,135.2z"/>
<path class="st14" d="M79.9,132.5c-1.3-0.5-2.7-0.6-4.1-0.3c0.7,4.9,4.7,8.7,9.6,9.1C85.9,137.5,83.6,133.8,79.9,132.5z"/>
<path class="st15" d="M124.7,73.3c-0.1-0.6,0.3-1.2,0.9-1.3c0.4-0.1,0.7,0,1,0.3c3.6,3.3,5.5,8,5.1,12.9c-0.4,4.4-2.4,8.6-5.6,11.7
	c-2.2,2.2-5.3,3.3-8.4,3.1C95.8,98,76,82.3,76,82.3c-4,17.4-15.3,25.1-15.3,25.1l-5.4-1.9l-3.8-5.6c3.3-9.5,0.2-33.4,17.3-27.5
	c0,0,5.3-15.3,22.9-13c2.4,0.3,11.7,1.2,18.8,12.3C116.6,81.1,125.6,79.5,124.7,73.3z"/>
<ellipse transform="matrix(0.9986 -5.320740e-02 5.320740e-02 0.9986 -5.4676 3.2218)" class="st7" cx="57.8" cy="104.3" rx="7.4" ry="11.1"/>
<path class="st12" d="M96.6,112.1l-6.1,11.7c-0.3,0.5-0.1,1.1,0.4,1.3c0,0,0,0,0,0l3.8,1.9c1.5,0.8,3.3,0.2,4-1.3
	c0.3-0.5,0.4-1,0.3-1.6l-0.6-11.7c0-0.6-0.5-1-1.1-0.9C97.1,111.6,96.8,111.8,96.6,112.1z"/>
<polygon class="st6" points="56.1,144.5 48.4,153.8 68.4,181.5 77,162.3 "/>
<polygon class="st11" points="77,162.3 86.9,178.2 72.8,171.6 "/>
<circle class="st7" cx="34.6" cy="127.5" r="2.2"/>
<circle class="st8" cx="145.3" cy="68.3" r="2.2"/>
<circle class="st7" cx="115.1" cy="12.7" r="2.2"/>
<circle class="st8" cx="145.3" cy="14.8" r="2.2"/>
<circle class="st7" cx="117.3" cy="68.3" r="2.2"/>
<circle class="st8" cx="145.3" cy="122.2" r="2.2"/>
<circle class="st7" cx="166.9" cy="140.7" r="2.2"/>
<circle class="st7" cx="118" cy="140.5" r="2.2"/>
<circle class="st7" cx="166.9" cy="73.8" r="2.2"/>
<circle class="st7" cx="14.3" cy="75.8" r="2.2"/>
<circle class="st7" cx="72.8" cy="2.2" r="2.2"/>
<circle class="st8" cx="41.1" cy="71.7" r="2.2"/>
<circle class="st8" cx="14.3" cy="27.8" r="2.2"/>
<circle class="st16" cx="10.1" cy="126.3" r="4.9"/>
<circle class="st8" cx="113.9" cy="38.9" r="4.9"/>
<path class="st8" d="M90.7,34.5c-0.8,0-1.5-0.7-1.5-1.5V12.7c0-0.8,0.7-1.5,1.5-1.5s1.5,0.7,1.5,1.5V33
	C92.2,33.8,91.5,34.5,90.7,34.5z"/>
<path class="st8" d="M90.7,53.9c-0.8,0-1.5-0.7-1.5-1.5v-9.8c0-0.8,0.7-1.5,1.5-1.5s1.5,0.7,1.5,1.5v9.8
	C92.2,53.2,91.5,53.9,90.7,53.9z"/>
<path class="st8" d="M53.5,58.8c-0.5,0-0.9-0.2-1.2-0.6l-20.2-27c-0.5-0.7-0.3-1.6,0.4-2.1c0.6-0.4,1.5-0.3,2,0.3l20.2,27
	c0.5,0.7,0.4,1.6-0.3,2.1C54.1,58.7,53.8,58.8,53.5,58.8L53.5,58.8z"/>
<path class="st8" d="M128.2,58.5c-0.8,0-1.5-0.7-1.5-1.5c0-0.3,0.1-0.6,0.3-0.9l20-26.8c0.5-0.6,1.5-0.7,2.1-0.2
	c0.6,0.5,0.7,1.3,0.3,2l-20,26.8C129.1,58.3,128.6,58.5,128.2,58.5z"/>
<path class="st8" d="M32.4,149.5c-0.8,0-1.5-0.7-1.4-1.5c0-0.4,0.2-0.8,0.4-1l14.4-14.1c0.6-0.6,1.5-0.6,2.1-0.1
	c0.6,0.6,0.6,1.5,0.1,2.1c0,0,0,0-0.1,0.1l-14.4,14.1C33.2,149.4,32.8,149.5,32.4,149.5z"/>
<path class="st8" d="M145.2,149.5c-0.4,0-0.9-0.2-1.1-0.5l-19.2-22.9c-0.5-0.6-0.5-1.6,0.2-2.1s1.6-0.5,2.1,0.2l19.2,22.9
	c0.5,0.6,0.4,1.6-0.2,2.1C145.9,149.4,145.5,149.5,145.2,149.5L145.2,149.5z"/>
<circle class="st16" cx="169.1" cy="38.9" r="4.9"/>
<ellipse transform="matrix(0.2541 -0.9672 0.9672 0.2541 11.0417 244.6799)" class="st16" cx="164.2" cy="115.2" rx="4.9" ry="4.9"/>
<circle class="st16" cx="54.4" cy="21.9" r="4.9"/>
<circle class="st8" cx="10.1" cy="46.1" r="4.9"/>
<circle class="st7" cx="72.8" cy="41.1" r="2.5"/>
<path class="st8" d="M41.1,96.2h-6.5c-0.8,0-1.5-0.7-1.5-1.5s0.7-1.5,1.5-1.5h6.5c0.8,0,1.5,0.7,1.5,1.5S41.9,96.2,41.1,96.2z"/>
<path class="st8" d="M24.5,96.2H4.1c-0.8,0-1.5-0.7-1.5-1.5s0.7-1.5,1.5-1.5h20.5c0.8,0,1.5,0.7,1.5,1.5S25.3,96.2,24.5,96.2z"/>
<path class="st8" d="M162,96.2h-21.6c-0.8,0-1.5-0.7-1.5-1.5s0.7-1.5,1.5-1.5H162c0.8,0,1.5,0.7,1.5,1.5S162.8,96.2,162,96.2
	L162,96.2z"/>
<path class="st8" d="M177.4,96.2h-5.1c-0.8,0-1.5-0.7-1.5-1.5s0.7-1.5,1.5-1.5h5.1c0.8,0,1.5,0.7,1.5,1.5S178.2,96.2,177.4,96.2z"/>
<circle class="st8" cx="28.1" cy="111.8" r="2.2"/>
</svg>
